<svg xmlns="http://www.w3.org/2000/svg" viewBox="0 0 100 100" width="100" height="100">
  <defs>
    <linearGradient id="serverGrad" x1="0%" y1="0%" x2="0%" y2="100%">
      <stop offset="0%" style="stop-color:#1e293b"/>
      <stop offset="100%" style="stop-color:#0f172a"/>
    </linearGradient>
  </defs>
  <rect width="100" height="100" rx="16" fill="url(#serverGrad)"/>
  <rect x="15" y="12" width="70" height="18" rx="2" fill="#334155"/>
  <circle cx="25" cy="21" r="3" fill="#22c55e"/>
  <circle cx="35" cy="21" r="3" fill="#3b82f6"/>
  <rect x="45" y="18" width="30" height="6" rx="1" fill="#475569"/>
  <rect x="15" y="35" width="70" height="18" rx="2" fill="#334155"/>
  <circle cx="25" cy="44" r="3" fill="#22c55e"/>
  <circle cx="35" cy="44" r="3" fill="#3b82f6"/>
  <rect x="45" y="41" width="30" height="6" rx="1" fill="#475569"/>
  <rect x="15" y="58" width="70" height="18" rx="2" fill="#334155"/>
  <circle cx="25" cy="67" r="3" fill="#22c55e"/>
  <circle cx="35" cy="67" r="3" fill="#3b82f6"/>
  <rect x="45" y="64" width="30" height="6" rx="1" fill="#475569"/>
  <rect x="15" y="81" width="70" height="7" rx="1" fill="#64748b"/>
</svg>